<?xml version="1.0" standalone="no"?>
<!DOCTYPE svg PUBLIC "-//W3C//DTD SVG 1.1//EN" "http://www.w3.org/Graphics/SVG/1.1/DTD/svg11.dtd" >
<svg>
<metadata>
Created by FontForge 20090622 at Mon Jul 30 03:18:54 2018
 By deploy user
Copyright (c) Phanlop Thongsuk, 1995-2004. All rights reserved.
</metadata>
<defs>
<font id="PSLKandaModernExtra" horiz-adv-x="0" >
  <font-face 
    font-family="PSL Kanda Modern Extra"
    font-weight="400"
    font-stretch="normal"
    units-per-em="2048"
    panose-1="2 11 6 4 2 2 2 2 2 4"
    ascent="1638"
    descent="-410"
    x-height="698"
    cap-height="965"
    bbox="-954 -623 1499 1599"
    underline-thickness="50"
    underline-position="-115"
    unicode-range="U+0020-U+F71D"
  />
<missing-glyph 
 />
    <glyph glyph-name=".notdef" 
 />
    <glyph glyph-name=".null" 
 />
    <glyph glyph-name="nonmarkingreturn" horiz-adv-x="512" 
 />
    <glyph glyph-name="space" unicode=" " horiz-adv-x="512" 
 />
    <glyph glyph-name="space" unicode="&#xa0;" horiz-adv-x="512" 
 />
    <glyph glyph-name="exclam" unicode="!" horiz-adv-x="391" 
d="M289 705l-43 -418h-96l-46 418v260h185v-260zM303 98q0 -47 -29.5 -76.5t-76.5 -29.5t-77 29.5t-30 76.5t31 77t76 30q47 0 76.5 -30t29.5 -77z" />
    <glyph glyph-name="quotedbl" unicode="&#x22;" horiz-adv-x="616" 
d="M504 584h-154v381h154v-381zM266 584h-153v381h153v-381z" />
    <glyph glyph-name="numbersign" unicode="#" horiz-adv-x="768" 
d="M725 551h-131l-21 -156h113v-114h-129l-41 -281h-127l41 281h-131l-41 -281h-127l39 281h-125v114h143l23 156h-125v115h139l39 280h129l-41 -280h131l39 280h129l-41 -280h115v-115zM469 551h-133l-21 -156h131z" />
    <glyph glyph-name="dollar" unicode="$" horiz-adv-x="768" 
d="M745 283q0 -144 -92 -226q-86 -71 -229 -80v-104h-74v104q-149 7 -239.5 91t-87.5 235h170q0 -180 157 -192v309q-143 41 -209 92q-98 76 -98 207q0 123 92 199q86 67 215 71v105h74v-105q131 -2 211 -69q86 -74 86 -207h-170q-6 139 -127 141v-268q151 -39 223 -94
q98 -76 98 -209zM350 604v250q-137 -4 -137 -125q0 -92 137 -125zM573 262q0 103 -149 144v-295q149 14 149 151z" />
    <glyph glyph-name="percent" unicode="%" horiz-adv-x="1368" 
d="M1257 254q0 -270 -233 -270q-236 0 -236 270q0 119 58.5 195.5t177.5 76.5q117 0 178 -80q55 -73 55 -192zM1001 979l-530 -1010h-125l533 1010h122zM580 692q0 -272 -236 -272q-233 0 -233 272q0 119 58 196t175 77q119 0 180 -80q56 -74 56 -193zM1118 254
q0 170 -96 170q-94 0 -94 -170t94 -170q96 0 96 170zM440 692q0 170 -96 170q-94 0 -94 -170t94 -170q96 0 96 170z" />
    <glyph glyph-name="ampersand" unicode="&#x26;" horiz-adv-x="893" 
d="M922 0l-211 2l-84 98q-105 -116 -271 -116q-139 0 -226 76.5t-87 211.5q0 168 217 277q-92 115 -92 205q0 104 69.5 168.5t174.5 64.5q104 0 174 -57q76 -64 76 -176q0 -152 -170 -244l135 -160q14 53 22 119h152q-15 -154 -74 -238zM506 758q0 100 -90 100
q-39 0 -66.5 -26.5t-27.5 -69.5q0 -37 28 -80l53 -68q103 72 103 144zM532 215l-180 221q-71 -41 -90 -55q-49 -45 -49 -113q0 -69 41 -110t106 -41q101 0 172 98z" />
    <glyph glyph-name="quotesingle" unicode="'" horiz-adv-x="391" 
d="M272 584h-153v381h153v-381z" />
    <glyph glyph-name="parenleft" unicode="(" horiz-adv-x="391" 
d="M410 -256l-146 2q-198 309 -198 619q0 325 198 622h144q-170 -303 -170 -622q0 -334 172 -621z" />
    <glyph glyph-name="parenright" unicode=")" horiz-adv-x="391" 
d="M326 365q0 -324 -201 -621h-137q168 301 168 621q0 329 -170 622h139q201 -309 201 -622z" />
    <glyph glyph-name="asterisk" unicode="*" horiz-adv-x="516" 
d="M496 770l-154 -51l94 -117l-84 -59l-96 123l-88 -123l-88 59l92 117l-147 51l34 98l146 -55v152h108v-152l144 55z" />
    <glyph glyph-name="plus" unicode="+" horiz-adv-x="766" 
d="M725 274h-276v-274h-134v274h-274v134h274v274h134v-274h276v-134z" />
    <glyph glyph-name="comma" unicode="," horiz-adv-x="381" 
d="M311 74q0 -131 -145 -234l-74 31q90 59 103 121q-50 -2 -83.5 27.5t-33.5 76.5q0 45 31.5 78t80.5 33q121 0 121 -133z" />
    <glyph glyph-name="hyphen" unicode="-" horiz-adv-x="543" 
d="M475 295h-409v145h409v-145z" />
    <glyph glyph-name="period" unicode="." horiz-adv-x="381" 
d="M299 98q0 -45 -31.5 -75.5t-77.5 -30.5q-45 0 -76.5 30.5t-31.5 75.5t31.5 77t76.5 32q46 0 77.5 -32t31.5 -77z" />
    <glyph glyph-name="slash" unicode="/" horiz-adv-x="492" 
d="M526 987l-395 -1007h-164l393 1007h166z" />
    <glyph glyph-name="zero" unicode="0" horiz-adv-x="766" 
d="M719 473q0 -489 -336 -489q-334 0 -334 489q0 492 334 492q336 0 336 -492zM549 473q0 350 -166 350q-164 0 -164 -350t164 -350q166 0 166 350z" />
    <glyph glyph-name="one" unicode="1" horiz-adv-x="766" 
d="M489 0h-186v655h-231v136q241 0 278 155h139v-946z" />
    <glyph glyph-name="two" unicode="2" horiz-adv-x="766" 
d="M717 670q0 -174 -215 -318l-150 -98q-73 -55 -94 -102h457v-152h-662q0 223 211 367q180 122 187 127q94 81 96 172q4 157 -152 157q-84 0 -125 -61q-34 -53 -28 -131h-172q-4 151 83 242.5t246 91.5q166 0 250 -99q68 -78 68 -196z" />
    <glyph glyph-name="three" unicode="3" horiz-adv-x="766" 
d="M725 274q0 -131 -99.5 -210.5t-242.5 -79.5q-162 0 -256 86q-86 84 -86 211h172q2 -68 43 -109q45 -49 127 -49q76 0 124 42t48 118q0 159 -248 147v131q211 -8 211 137q0 56 -39 90.5t-100 34.5q-72 0 -111 -46t-39 -103h-170q0 121 89.5 206t232.5 85q123 0 211 -64
q96 -72 96 -192q0 -146 -125 -199q72 -18 117 -83t45 -153z" />
    <glyph glyph-name="four" unicode="4" horiz-adv-x="766" 
d="M723 221h-119v-221h-166v221h-405v160l409 565h162v-590h119v-135zM438 356v383l-264 -383h264z" />
    <glyph glyph-name="five" unicode="5" horiz-adv-x="766" 
d="M723 322q0 -132 -78 -228q-94 -110 -258 -110q-147 0 -237 71q-99 80 -103 226h170q16 -158 166 -158q168 0 168 196q0 80 -41 132q-47 55 -131 55q-115 0 -146 -86h-170l105 526h504v-151h-377l-39 -207q66 55 162 55q141 0 223 -90t82 -231z" />
    <glyph glyph-name="six" unicode="6" horiz-adv-x="766" 
d="M723 305q0 -139 -90 -230t-234 -91q-198 0 -284 141q-70 117 -70 350q0 197 82 330q96 160 285 160q118 0 202 -75t91 -196h-170q-13 129 -132 129q-165 0 -186 -291q59 97 199 97q139 0 223 -91.5t84 -232.5zM551 309q0 78 -41 130.5t-117 52.5q-78 0 -120 -51.5
t-42 -131.5q0 -78 41 -129q43 -57 121 -57q76 0 119 57q39 51 39 129z" />
    <glyph glyph-name="seven" unicode="7" horiz-adv-x="766" 
d="M711 809q-320 -356 -353 -809h-186q29 426 356 795h-481v151h664v-137z" />
    <glyph glyph-name="eight" unicode="8" horiz-adv-x="766" 
d="M725 283q0 -138 -96.5 -218.5t-245.5 -80.5q-150 0 -246 80.5t-96 218.5q0 176 158 229q-117 61 -117 190q0 123 79 193t222 70q145 0 224 -70t79 -193q0 -129 -117 -190q156 -53 156 -229zM524 694q0 64 -40 99.5t-101 35.5q-59 0 -99 -35.5t-40 -99.5q0 -59 39 -94
t100 -35q63 0 102 35t39 94zM555 283q0 71 -47 112t-125 41q-76 0 -123 -41t-47 -112q0 -78 47 -122t123 -44q78 0 125 44t47 122z" />
    <glyph glyph-name="nine" unicode="9" horiz-adv-x="766" 
d="M723 471q0 -197 -82 -330q-96 -157 -285 -157q-118 0 -202 73.5t-91 194.5h170q13 -129 132 -129q163 0 184 287q-66 -93 -197 -93q-137 0 -222 88.5t-85 233.5q0 141 90 233.5t244 92.5q344 0 344 -494zM537 641q0 78 -42 130t-122 52q-78 0 -117 -52t-39 -130
q0 -80 37 -131q43 -57 119 -57q80 0 123 57q41 51 41 131z" />
    <glyph glyph-name="colon" unicode=":" horiz-adv-x="381" 
d="M299 557q0 -45 -31.5 -76.5t-77.5 -31.5q-45 0 -76.5 31.5t-31.5 76.5t31.5 77t76.5 32q46 0 77.5 -32t31.5 -77zM299 98q0 -45 -31.5 -75.5t-77.5 -30.5q-45 0 -76.5 30.5t-31.5 75.5t31.5 77t76.5 32q46 0 77.5 -32t31.5 -77z" />
    <glyph glyph-name="semicolon" unicode=";" horiz-adv-x="381" 
d="M299 557q0 -45 -31.5 -76.5t-77.5 -31.5q-45 0 -76.5 31.5t-31.5 76.5t31.5 77t76.5 32q46 0 77.5 -32t31.5 -77zM311 74q0 -131 -145 -234l-74 31q90 59 103 121q-50 -2 -83.5 27.5t-33.5 76.5q0 45 31.5 78t80.5 33q121 0 121 -133z" />
    <glyph glyph-name="less" unicode="&#x3c;" horiz-adv-x="827" 
d="M766 -8l-705 297v106l705 299v-151l-492 -201l492 -201v-149z" />
    <glyph glyph-name="equal" unicode="=" horiz-adv-x="766" 
d="M725 408h-684v133h684v-133zM725 141h-684v133h684v-133z" />
    <glyph glyph-name="greater" unicode="&#x3e;" horiz-adv-x="827" 
d="M766 289l-705 -297v149l492 201l-492 201v151l705 -299v-106z" />
    <glyph glyph-name="question" unicode="?" horiz-adv-x="768" 
d="M702 711q0 -127 -120 -226q-66 -53 -86 -82q-35 -49 -33 -124h-162q-4 167 109 264q106 90 106 162q0 141 -125 141q-76 0 -114.5 -50.5t-38.5 -127.5h-172q0 141 91 230t242 89q131 0 217 -73.5t86 -202.5zM489 98q0 -47 -29.5 -76.5t-76.5 -29.5t-77 29.5t-30 76.5
t31 77t76 30q47 0 76.5 -30t29.5 -77z" />
    <glyph glyph-name="at" unicode="@" horiz-adv-x="1098" 
d="M1032 590q0 -184 -123 -305q-100 -101 -204 -101q-78 0 -84 78q-76 -76 -150 -76q-86 0 -146.5 64.5t-60.5 155.5q0 135 84 239q90 113 221 113q97 0 150 -84l20 63h111l-100 -360q-13 -47 -13 -60q0 -22 19 -22q63 0 115.5 83t52.5 195q0 142 -101.5 228t-251.5 86
q-170 0 -282.5 -112.5t-112.5 -278.5q0 -205 119 -316q108 -102 287 -102q184 0 301 133h112q-145 -231 -417 -231q-222 0 -361 129q-151 141 -151 389q0 213 147 351t358 138q189 0 325 -112.5t136 -284.5zM674 532q0 43 -30 76t-69 33q-75 0 -127.5 -72.5t-52.5 -150.5
q0 -115 101 -115q71 0 127 80q51 72 51 149z" />
    <glyph glyph-name="A" unicode="A" horiz-adv-x="918" 
d="M932 0h-199l-90 252h-373l-90 -252h-192l374 965h193zM592 393l-135 379l-135 -379h270z" />
    <glyph glyph-name="B" unicode="B" horiz-adv-x="969" 
d="M918 272q0 -122 -87 -194q-94 -78 -276 -78h-453v965h478q294 0 294 -244q0 -139 -122 -201q166 -47 166 -248zM690 690q0 123 -135 123h-266v-246h266q135 0 135 123zM733 295q0 135 -153 135h-291v-278h291q153 0 153 143z" />
    <glyph glyph-name="C" unicode="C" horiz-adv-x="993" 
d="M940 379q8 -189 -115 -299q-116 -100 -303 -100q-213 0 -346 147q-125 141 -125 356q0 213 125 355q133 149 346 149q170 0 287 -90t131 -250h-184q-47 189 -234 189q-141 0 -219 -109q-65 -96 -65 -244q0 -149 65 -243q76 -111 219 -111q109 0 173.5 66.5t68.5 183.5
h176z" />
    <glyph glyph-name="D" unicode="D" horiz-adv-x="993" 
d="M944 483q0 -213 -102 -342q-113 -141 -330 -141h-410v965h410q217 0 330 -142q102 -127 102 -340zM760 483q0 158 -60 234q-75 96 -254 96h-157v-661h157q181 0 254 96q60 78 60 235z" />
    <glyph glyph-name="E" unicode="E" horiz-adv-x="868" 
d="M823 0h-721v965h711v-160h-524v-232h485v-151h-485v-262h534v-160z" />
    <glyph glyph-name="F" unicode="F" horiz-adv-x="817" 
d="M786 805h-497v-232h436v-151h-436v-422h-187v965h684v-160z" />
    <glyph glyph-name="G" unicode="G" horiz-adv-x="1042" 
d="M961 0h-121l-25 100q-117 -120 -287 -120q-213 0 -346 147q-125 141 -125 356q0 213 125 355q133 149 346 149q170 0 283 -84q121 -90 139 -256h-180q-12 90 -80.5 139.5t-161.5 49.5q-141 0 -219 -109q-65 -96 -65 -244q0 -149 65 -243q76 -111 219 -111q252 -2 263 244
h-256v143h426v-516z" />
    <glyph glyph-name="H" unicode="H" horiz-adv-x="993" 
d="M893 0h-186v428h-422v-428h-187v965h187v-377h422v377h186v-965z" />
    <glyph glyph-name="I" unicode="I" horiz-adv-x="391" 
d="M289 0h-187v965h187v-965zM289 0v965h-187v-965h187zM289 0h-187v965h187v-965z" />
    <glyph glyph-name="J" unicode="J" horiz-adv-x="741" 
d="M639 313q0 -153 -57 -231q-76 -102 -269 -102q-295 0 -295 309v59h185v-57q0 -162 125 -162q73 0 102 45q25 39 25 129v662h184v-652z" />
    <glyph glyph-name="K" unicode="K" horiz-adv-x="942" 
d="M961 0h-232l-311 451l-129 -127v-324h-187v965h187v-418l418 418h231l-395 -387z" />
    <glyph glyph-name="L" unicode="L" horiz-adv-x="793" 
d="M778 0h-676v965h187v-805h489v-160z" />
    <glyph glyph-name="M" unicode="M" horiz-adv-x="1219" 
d="M1118 0h-178v700l-256 -700h-152l-256 705v-705h-176v965h252l260 -729l256 729h250v-965z" />
    <glyph glyph-name="N" unicode="N" horiz-adv-x="993" 
d="M895 0l-190 2l-433 684v-686h-176v965l189 -2l432 -687v689h178v-965z" />
    <glyph glyph-name="O" unicode="O" horiz-adv-x="1044" 
d="M993 483q0 -215 -125 -356q-133 -147 -346 -147t-346 147q-125 141 -125 356q0 213 125 355q133 149 346 149t346 -149q125 -142 125 -355zM807 483q0 148 -66 244q-77 109 -219 109q-141 0 -219 -109q-65 -96 -65 -244q0 -149 65 -243q76 -111 219 -111q144 0 219 111
q66 94 66 243z" />
    <glyph glyph-name="P" unicode="P" horiz-adv-x="918" 
d="M872 664q0 -299 -335 -299h-248v-365h-187v965h435q335 0 335 -301zM688 664q0 149 -158 149h-241v-297h237q64 0 109 31q53 39 53 117z" />
    <glyph glyph-name="Q" unicode="Q" horiz-adv-x="1044" 
d="M993 485q0 -233 -133 -364l127 -105l-96 -102l-143 121q-103 -53 -226 -53q-213 0 -346 147q-125 141 -125 356q0 211 125 353q133 149 346 149t346 -149q125 -142 125 -353zM807 485q0 146 -66 242q-77 109 -219 109q-141 0 -219 -109q-65 -96 -65 -242q0 -149 65 -243
q76 -111 219 -111q51 0 92 16l-94 82l94 103l115 -101q78 95 78 254z" />
    <glyph glyph-name="R" unicode="R" horiz-adv-x="969" 
d="M950 0h-209q-28 47 -28 150q0 131 -38 186t-147 55h-239v-391h-187v965h469q328 0 328 -265q0 -180 -139 -235q123 -37 123 -205q0 -192 67 -260zM713 678q0 135 -158 135h-266v-278h268q156 0 156 143z" />
    <glyph glyph-name="S" unicode="S" horiz-adv-x="893" 
d="M848 285q0 -154 -123 -236q-107 -69 -270 -69q-181 0 -287 81q-121 93 -123 271h184q0 -203 238 -203q195 0 195 135q0 82 -74 109q-25 10 -287 78q-219 57 -219 249q0 138 113 218q102 69 247 69q162 0 267 -80q112 -88 112 -237h-186q-10 166 -199 166
q-170 0 -170 -115q0 -86 111.5 -114.5l275.5 -71.5q95 -27 148 -103q47 -67 47 -147z" />
    <glyph glyph-name="T" unicode="T" horiz-adv-x="817" 
d="M809 805h-307v-805h-187v805h-305v160h799v-160z" />
    <glyph glyph-name="U" unicode="U" horiz-adv-x="993" 
d="M901 350q0 -182 -109.5 -276t-295.5 -94q-187 0 -295.5 94t-108.5 276v615h184v-559q0 -127 31 -181q47 -88 189 -88q141 0 190 88q29 54 29 181v559h186v-615z" />
    <glyph glyph-name="V" unicode="V" horiz-adv-x="842" 
d="M854 965l-336 -965h-201l-325 965h190l240 -736l242 736h190z" />
    <glyph glyph-name="W" unicode="W" horiz-adv-x="1292" 
d="M1286 965l-270 -965h-185l-188 707l-192 -707h-187l-258 965h189l170 -705l188 705h186l183 -705l176 705h188z" />
    <glyph glyph-name="X" unicode="X" horiz-adv-x="893" 
d="M905 0h-227l-236 356l-245 -356h-207l348 500l-326 465h219l215 -330l226 328h207l-324 -463zM905 0l-350 500l324 463h-207l-226 -328l-215 330h-219l326 -465l-348 -500h207l245 356l236 -356h227zM905 0h-227l-236 356l-245 -356h-207l348 500l-326 465h219l215 -330
l226 328h207l-324 -463z" />
    <glyph glyph-name="Y" unicode="Y" horiz-adv-x="893" 
d="M907 963l-368 -584v-379h-185v379l-366 586h211l252 -420l247 418h209z" />
    <glyph glyph-name="Z" unicode="Z" horiz-adv-x="868" 
d="M838 0h-807v147l553 658h-510v160h751v-136l-553 -669h566v-160z" />
    <glyph glyph-name="bracketleft" unicode="[" horiz-adv-x="416" 
d="M416 -256h-318v1243h318v-135h-156v-973h156v-135z" />
    <glyph glyph-name="backslash" unicode="\" horiz-adv-x="492" 
d="M526 -20h-166l-393 1007h164z" />
    <glyph glyph-name="bracketright" unicode="]" horiz-adv-x="416" 
d="M319 -256h-317v135h156v973h-156v135h317v-1243z" />
    <glyph glyph-name="asciicircum" unicode="^" horiz-adv-x="827" 
d="M721 453h-160l-147 309l-148 -309h-160l252 493h111z" />
    <glyph glyph-name="underscore" unicode="_" horiz-adv-x="766" 
d="M766 -209h-766v109h766v-109z" />
    <glyph glyph-name="grave" unicode="`" horiz-adv-x="342" 
d="M287 795h-129l-209 192h203z" />
    <glyph glyph-name="a" unicode="a" horiz-adv-x="768" 
d="M758 0q-56 -16 -107 -16q-100 0 -123 71q-92 -71 -237 -71q-103 0 -172 49q-76 57 -76 155q0 119 88 170q53 33 186 52q72 10 144 18q61 16 61 70q0 84 -137 84t-145 -107h-170q12 242 325 242q117 0 197 -47q90 -56 90 -160v-350q0 -43 29 -43q22 0 47 2v-119zM512 238
v98q-29 -14 -84 -23l-94 -12q-121 -20 -121 -104q0 -80 135 -80q60 0 107 26q57 33 57 95z" />
    <glyph glyph-name="b" unicode="b" horiz-adv-x="842" 
d="M793 348q0 -153 -76 -254q-84 -110 -234 -110q-170 0 -235 90v-74h-162v965h170v-338q72 94 203 94q162 0 252 -109q82 -102 82 -264zM623 350q0 99 -45 164q-52 72 -140 72q-188 0 -188 -236q0 -102 50 -167.5t138 -65.5q94 0 144 73q41 64 41 160z" />
    <glyph glyph-name="c" unicode="c" horiz-adv-x="768" 
d="M725 272q-47 -288 -330 -288q-164 0 -258 102q-90 96 -90 256q0 166 88 266q94 109 264 109q133 0 219 -64q95 -67 105 -198h-170q-18 127 -152 127q-184 0 -184 -240q0 -94 41 -154q47 -71 137 -71q135 0 158 155h172z" />
    <glyph glyph-name="d" unicode="d" horiz-adv-x="842" 
d="M756 0h-162v76q-62 -92 -211 -92q-164 0 -254 106q-82 100 -82 266q0 179 96 279q86 86 215 86q158 0 228 -98v342h170v-965zM590 352q0 109 -49 171.5t-135 62.5q-97 0 -146 -76q-43 -66 -43 -166q0 -94 45 -156q49 -71 141 -71q93 0 144 76q43 63 43 159z" />
    <glyph glyph-name="e" unicode="e" horiz-adv-x="768" 
d="M731 303h-514q2 -80 47 -129q49 -57 133 -57q125 0 164 112h164q-29 -118 -117 -181.5t-211 -63.5q-164 0 -257 100t-93 264q0 154 95.5 261.5t250.5 107.5q152 0 247 -105.5t95 -255.5q0 -26 -4 -53zM561 418q-8 69 -53 116.5t-115 47.5q-74 0 -122 -46.5t-54 -117.5
h344z" />
    <glyph glyph-name="f" unicode="f" horiz-adv-x="442" 
d="M444 817q-36 12 -79 12q-68 0 -68 -63v-64h131v-129h-131v-573h-170v573h-115v129h115v52q0 211 201 211q78 0 116 -11v-137z" />
    <glyph glyph-name="g" unicode="g" horiz-adv-x="817" 
d="M743 39q0 -313 -352 -313q-125 0 -209 49q-100 59 -110 180h168q20 -100 161 -100q177 0 177 165v91q-74 -113 -209 -113q-162 0 -246 106q-76 99 -76 263q0 145 89 247.5t237 102.5q137 0 200 -92v73h170v-659zM573 362q0 95 -45 157.5t-135 62.5t-137 -74
q-39 -64 -39 -158q0 -90 41 -149q47 -70 135 -70q92 0 139 74q41 61 41 157z" />
    <glyph glyph-name="h" unicode="h" horiz-adv-x="793" 
d="M711 0h-170v438q0 148 -129 148q-72 0 -116 -49.5t-44 -122.5v-414h-170v965h170v-340q70 96 203 96q256 0 256 -242v-479z" />
    <glyph glyph-name="i" unicode="i" horiz-adv-x="342" 
d="M256 805h-170v160h170v-160zM256 0h-170v702h170v-702z" />
    <glyph glyph-name="j" unicode="j" horiz-adv-x="342" 
d="M256 805h-170v160h170v-160zM256 -51q0 -223 -209 -223q-20 0 -76 4v139q37 -8 60 -8q35 0 47 24q8 19 8 70v747h170v-753z" />
    <glyph glyph-name="k" unicode="k" horiz-adv-x="741" 
d="M758 0h-209l-209 332l-84 -80v-252h-170v965h170v-527l266 264h213l-278 -260z" />
    <glyph glyph-name="l" unicode="l" horiz-adv-x="342" 
d="M256 0h-170v965h170v-965z" />
    <glyph glyph-name="m" unicode="m" horiz-adv-x="1192" 
d="M1112 0h-172v406q0 92 -16 126q-25 50 -103 50q-139 0 -139 -174v-408h-172v446q0 136 -115 136q-59 0 -101 -45t-42 -123v-414h-170v698h162v-82q73 101 211 101q145 0 196 -107q86 107 217 107q244 0 244 -236v-481z" />
    <glyph glyph-name="n" unicode="n" horiz-adv-x="793" 
d="M711 0h-170v436q0 146 -129 146q-72 0 -116 -49.5t-44 -122.5v-410h-170v698h162l-2 -90q71 109 213 109q256 0 256 -240v-477z" />
    <glyph glyph-name="o" unicode="o" horiz-adv-x="817" 
d="M770 350q0 -164 -96 -265t-264 -101t-264.5 101t-96.5 265t95.5 265.5t265.5 101.5t265 -101.5t95 -265.5zM600 350q0 94 -45 160q-51 72 -145 72q-95 0 -143 -69t-48 -163q0 -96 45 -160q51 -73 146 -73q94 0 145 73q45 64 45 160z" />
    <glyph glyph-name="p" unicode="p" horiz-adv-x="842" 
d="M793 344q0 -154 -76 -254q-84 -110 -234 -110q-153 0 -227 92v-328h-170v954h162v-73q65 92 211 92q162 0 252 -109q82 -102 82 -264zM623 346q0 98 -45 164q-52 72 -140 72q-188 0 -188 -236q0 -102 50 -167.5t138 -65.5q94 0 144 73q41 64 41 160z" />
    <glyph glyph-name="q" unicode="q" horiz-adv-x="842" 
d="M756 -256h-170v328q-74 -92 -230 -92q-149 0 -233 110q-76 100 -76 254q0 162 82 264q90 109 254 109q143 0 211 -94v75h162v-954zM590 346q0 236 -187 236q-88 0 -137 -70t-49 -166t43 -160q49 -73 143 -73q187 0 187 233z" />
    <glyph glyph-name="r" unicode="r" horiz-adv-x="492" 
d="M508 553q-33 6 -76 6q-78 0 -127 -57q-53 -64 -53 -170v-332h-170v698h160v-102q24 49 80.5 85t117.5 36q23 0 68 -4v-160z" />
    <glyph glyph-name="s" unicode="s" horiz-adv-x="719" 
d="M682 211q0 -117 -104 -178q-89 -49 -218 -49q-141 0 -225 59q-90 68 -92 193h170q10 -119 152 -119q149 0 145 82q-2 49 -72 71q-8 4 -149 33q-232 47 -232 211q0 104 103 160q80 43 198 43q275 0 299 -225h-174q-18 90 -127 90q-127 0 -127 -62q0 -47 70 -69
q10 -5 150 -33q233 -49 233 -207z" />
    <glyph glyph-name="t" unicode="t" horiz-adv-x="467" 
d="M436 2q-82 -6 -108 -6q-119 0 -160 42t-41 138v397h-117v129h117v207h170v-207h139v-129h-139v-358q0 -47 10 -63q15 -23 58 -23q41 0 71 8v-135z" />
    <glyph glyph-name="u" unicode="u" horiz-adv-x="793" 
d="M711 0h-168v76q-68 -92 -193 -92q-268 0 -268 274v440h170v-426q0 -155 125 -155q164 0 164 178v403h170v-698z" />
    <glyph glyph-name="v" unicode="v" horiz-adv-x="719" 
d="M711 698l-258 -698h-185l-260 698h187l172 -512l165 512h179z" />
    <glyph glyph-name="w" unicode="w" horiz-adv-x="1067" 
d="M1055 698l-226 -698h-170l-124 485l-125 -485h-174l-222 698h181l131 -489l127 489h168l122 -489l136 489h176z" />
    <glyph glyph-name="x" unicode="x" horiz-adv-x="741" 
d="M745 0l-206 4l-172 244l-170 -244l-197 -4l268 369l-248 329l203 -4l146 -202l147 202l197 2l-244 -321z" />
    <glyph glyph-name="y" unicode="y" horiz-adv-x="719" 
d="M717 698l-277 -731q-47 -125 -84 -170q-61 -71 -172 -71q-57 0 -114 8v145q65 -12 82 -12q71 0 100 90l16 49l-268 692h186l179 -499l172 499h180z" />
    <glyph glyph-name="z" unicode="z" horiz-adv-x="692" 
d="M662 0h-631v119l375 446h-349v133h584v-116l-389 -449h410v-133z" />
    <glyph glyph-name="braceleft" unicode="{" horiz-adv-x="416" 
d="M434 -256h-131q-57 0 -115 45q-67 57 -67 145v263q0 98 -125 98v139q125 0 125 88v275q0 88 67 145q58 45 115 45h131v-135h-82q-67 0 -67 -86v-260q0 -105 -107 -139q107 -29 107 -152v-248q0 -88 67 -88h82v-135z" />
    <glyph glyph-name="bar" unicode="|" horiz-adv-x="317" 
d="M236 -20h-154v1007h154v-1007z" />
    <glyph glyph-name="braceright" unicode="}" horiz-adv-x="416" 
d="M422 295q-127 0 -127 -88v-273q0 -88 -68 -145q-57 -45 -114 -45h-129v135h82q67 0 67 88v256q0 103 105 142q-105 28 -105 149v252q0 86 -67 86h-82v135h129q57 0 114 -45q68 -57 68 -145v-265q0 -98 127 -98v-139z" />
    <glyph glyph-name="asciitilde" unicode="~" horiz-adv-x="827" 
d="M735 346q-86 -108 -178 -108q-51 0 -143 39.5t-150 39.5q-59 0 -114 -90l-56 115q62 107 176 107q58 0 158 -40t131 -40q45 0 123 88z" />
    <glyph glyph-name="ellipsis_" unicode="&#x2026;" horiz-adv-x="1143" 
d="M1061 98q0 -45 -32 -75.5t-77 -30.5t-76.5 30.5t-31.5 75.5t31.5 77t76.5 32t77 -32t32 -77zM680 98q0 -45 -32 -75.5t-77 -30.5t-76.5 30.5t-31.5 75.5t31.5 77t76.5 32t77 -32t32 -77zM299 98q0 -45 -31.5 -75.5t-77.5 -30.5q-45 0 -76.5 30.5t-31.5 75.5t31.5 77
t76.5 32q46 0 77.5 -32t31.5 -77z" />
    <glyph glyph-name="quoteleft_" unicode="&#x2018;" horiz-adv-x="440" 
d="M348 748q0 -50 -34.5 -85.5t-86.5 -35.5q-135 0 -135 145q0 148 160 258l82 -33q-101 -67 -113 -133q53 2 90 -31.5t37 -84.5z" />
    <glyph glyph-name="quoteright_" unicode="&#x2019;" horiz-adv-x="440" 
d="M348 885q0 -148 -160 -258l-82 32q101 68 113 134q-53 -2 -90 31.5t-37 84.5q0 49 35 85t86 36q135 0 135 -145z" />
    <glyph glyph-name="quotedblleft_" unicode="&#x201c;" horiz-adv-x="758" 
d="M666 748q0 -50 -35 -85.5t-86 -35.5q-135 0 -135 145q0 148 159 258l82 -33q-100 -67 -112 -133q53 2 90 -31.5t37 -84.5zM348 748q0 -50 -34.5 -85.5t-86.5 -35.5q-135 0 -135 145q0 148 160 258l82 -33q-101 -67 -113 -133q53 2 90 -31.5t37 -84.5z" />
    <glyph glyph-name="quotedblright_" unicode="&#x201d;" horiz-adv-x="758" 
d="M666 885q0 -148 -160 -258l-82 32q100 68 113 134q-54 -2 -90.5 31.5t-36.5 84.5q0 49 34.5 85t85.5 36q136 0 136 -145zM348 885q0 -148 -160 -258l-82 32q101 68 113 134q-53 -2 -90 31.5t-37 84.5q0 49 35 85t86 36q135 0 135 -145z" />
    <glyph glyph-name="bullet_" unicode="&#x2022;" horiz-adv-x="737" 
d="M676 410q0 -127 -90 -217.5t-217 -90.5t-217.5 90.5t-90.5 217.5t90.5 217t217.5 90t217 -90t90 -217z" />
    <glyph glyph-name="endash_" unicode="&#x2013;" horiz-adv-x="766" 
d="M725 274h-684v134h684v-134z" />
    <glyph glyph-name="emdash_" unicode="&#x2014;" horiz-adv-x="1532" 
d="M1491 274h-1450v134h1450v-134z" />
    <glyph glyph-name="currency" unicode="&#xa4;" horiz-adv-x="840" 
d="M422 729q49 0 89 -18.5t69.5 -49t46 -72.5t16.5 -87q0 -101 -63 -164q-66 -68 -158 -68q-98 0 -162 68q-63 70 -63 164q0 88 65 160q64 67 160 67zM8 164l76 -76l145 148q82 -62 193 -62q53 0 105.5 18.5t82.5 43.5l150 -148l71 76l-145 145q59 78 59 193q0 110 -59 188
l145 150l-71 71l-150 -145q-32 27 -82.5 43t-105.5 16q-115 0 -193 -59l-145 145l-76 -71l148 -150q-62 -74 -62 -188q0 -111 62 -193z" />
    <glyph glyph-name="guillemotleft" unicode="&#xab;" horiz-adv-x="653" 
d="M573 125l-227 170v145l227 170v-149l-127 -94l127 -93v-149zM295 125l-227 170v145l227 170v-149l-123 -94l123 -93v-149z" />
    <glyph glyph-name="logicalnot" unicode="&#xac;" horiz-adv-x="766" 
d="M726 119v268h-686v-90h604v-178h82z" />
    <glyph glyph-name="registered" unicode="&#xae;" horiz-adv-x="1135" 
d="M1073 483q0 -211 -147.5 -357t-358.5 -146t-358.5 146t-147.5 357q0 209 147.5 356.5t358.5 147.5t358.5 -147.5t147.5 -356.5zM987 483q0 179 -119.5 301.5t-296.5 122.5q-180 0 -300.5 -122.5t-120.5 -301.5q0 -178 121.5 -302t299.5 -124q177 0 296.5 125t119.5 301z
M838 199h-121q-19 26 -19 90q0 71 -16 98q-23 41 -88 41h-139v-229h-109v561h270q191 0 191 -154q0 -100 -78 -137q72 -25 72 -119q0 -112 37 -151zM698 594q0 78 -88 78h-155v-162h155q88 0 88 84z" />
    <glyph glyph-name="degree" unicode="&#xb0;" horiz-adv-x="541" 
d="M266 915q-42 0 -78.5 -16.5t-63.5 -44t-42.5 -64.5t-15.5 -77q0 -43 16 -80t43.5 -64.5t63.5 -43t77 -15.5q43 0 80.5 16t65 43.5t43.5 64.5t16 79t-16 79t-43.5 64t-65 43t-80.5 16zM266 858q31 0 58 -11.5t47.5 -31t32.5 -46t12 -56.5q0 -59 -45 -105q-45 -43 -105 -43
q-30 0 -56.5 12t-46 32t-31 47t-11.5 57q0 31 11 57.5t30.5 46t46 30.5t57.5 11z" />
    <glyph glyph-name="paragraph" unicode="&#xb6;" horiz-adv-x="727" 
d="M629 1112v-1356h-62v1356h-145v-1356h-55v805q-168 0 -263 62q-104 73 -104 235q0 152 94 229q90 66 248 66h389v-41h-102z" />
    <glyph glyph-name="guillemotright" unicode="&#xbb;" horiz-adv-x="653" 
d="M584 297l-226 -170v147l125 95l-125 94v145l226 -168v-143zM305 297l-223 -172v149l121 95l-121 94v147l223 -170v-143z" />
    <glyph glyph-name="divide" unicode="&#xf7;" horiz-adv-x="766" 
d="M475 600q0 -37 -26.5 -63.5t-63.5 -26.5t-63.5 26.5t-26.5 63.5t26.5 63.5t63.5 26.5t63.5 -26.5t26.5 -63.5zM725 274h-684v134h684v-134zM473 82q0 -37 -26.5 -62.5t-63.5 -25.5t-63.5 25.5t-26.5 62.5t26.5 63.5t63.5 26.5t63.5 -26.5t26.5 -63.5z" />
    <glyph glyph-name="FL00A9h" unicode="&#xa9;" horiz-adv-x="1135" 
d="M1073 483q0 -211 -147.5 -357t-358.5 -146t-358.5 146t-147.5 357q0 209 147.5 356.5t358.5 147.5t358.5 -147.5t147.5 -356.5zM985 483q0 179 -118.5 301.5t-297.5 122.5q-180 0 -299.5 -121.5t-119.5 -302.5q0 -178 120.5 -301t298.5 -123q176 0 296 124t120 300z
M831 414q5 -115 -68 -179.5t-188 -64.5q-129 0 -210 92q-78 86 -78 217q0 129 78.5 218t209.5 89q103 0 175.5 -55t80.5 -151h-112q-31 114 -144 114q-88 0 -133 -67q-41 -58 -41 -148q0 -92 41 -149q45 -68 133 -68q142 0 146 152h110z" />
    <glyph glyph-name="periodcentered" unicode="&#xb7;" horiz-adv-x="338" 
d="M170 520q-33 0 -53 -20q-21 -24 -21 -51q0 -33 21 -54q11 -11 24.5 -15.5t28.5 -4.5q29 0 50.5 21.5t21.5 52.5q0 29 -20.5 50t-51.5 21z" />
    <glyph glyph-name="periodcentered" unicode="&#x2219;" horiz-adv-x="338" 
d="M170 520q-33 0 -53 -20q-21 -24 -21 -51q0 -33 21 -54q11 -11 24.5 -15.5t28.5 -4.5q29 0 50.5 21.5t21.5 52.5q0 29 -20.5 50t-51.5 21z" />
    <glyph glyph-name="DEL" unicode="&#xf71b;" 
d="M0 -3v1211h-478v-1211h478z" />
    <glyph glyph-name="f700_" unicode="&#xf700;" horiz-adv-x="797" 
d="M752 459q0 -221 -126 -342t-335 -121q-29 0 -60 2l-114 448l-37 66h201l88 -354q86 12 146 96t60 205q0 104 -59 168.5t-156 64.5q-159 0 -206 -119h-168q14 117 115.5 189t258.5 72q76 0 140 -19q39 27 39 66h186q0 -84 -92 -133q119 -103 119 -289z" />
    <glyph glyph-name="f701_" unicode="&#xf701;" 
d="M-330 922h-624v110h624v-110z" />
    <glyph glyph-name="f702_" unicode="&#xf702;" 
d="M-317 922h-625v110h448v105h177v-215z" />
    <glyph glyph-name="f703_" unicode="&#xf703;" 
d="M-276 1034q0 -49 -36 -80.5t-94 -31.5h-536v110h407q0 51 36 83t93 32q58 0 94 -32t36 -81zM-358 1034q0 43 -48 43q-47 0 -47 -43t47 -43q48 0 48 43z" />
    <glyph glyph-name="f704_" unicode="&#xf704;" 
d="M-317 922h-625v110h272v105h115v-105h61v105h177v-215z" />
    <glyph glyph-name="f705_" unicode="&#xf705;" 
d="M-338 922h-176v215h176v-215z" />
    <glyph glyph-name="f706_" unicode="&#xf706;" 
d="M-195 922h-419v39q0 61 -62 61h-31v113h148q121 0 121 -103h243v-110z" />
    <glyph glyph-name="f707_" unicode="&#xf707;" 
d="M-287 922h-211v96q0 45 -41 45h-10l-90 -62l-92 62h-4q-41 0 -41 -45v-4h61v-92h-178v104q0 70 46 107.5t118 37.5h14l78 -53l74 53h18q158 0 162 -139h96v-110z" />
    <glyph glyph-name="f708_" unicode="&#xf708;" 
d="M-291 1014h-98v-92h-176v92h-99v86h99v92h176v-92h98v-86z" />
    <glyph glyph-name="f709_" unicode="&#xf709;" 
d="M-297 1006h-100q-72 0 -72 -64v-20h-176v67q0 68 45 103.5t115 35.5h188v-122z" />
    <glyph glyph-name="f70a_" unicode="&#xf70a;" 
d="M-59 922h-177v215h177v-215z" />
    <glyph glyph-name="f70b_" unicode="&#xf70b;" 
d="M47 922h-418v39q0 61 -61 61h-31v113h148q120 0 120 -103h242v-110z" />
    <glyph glyph-name="f70c_" unicode="&#xf70c;" 
d="M-51 922h-211v96q0 45 -41 45h-10l-90 -62l-93 62h-4q-41 0 -41 -45v-4h62v-92h-178v104q0 70 46 107.5t117 37.5h15l78 -53l73 53h19q157 0 162 -139h96v-110z" />
    <glyph glyph-name="f70d_" unicode="&#xf70d;" 
d="M-59 1014h-99v-92h-176v92h-98v86h98v92h176v-92h99v-86z" />
    <glyph glyph-name="f70e_" unicode="&#xf70e;" 
d="M-39 1006h-100q-72 0 -72 -64v-20h-176v67q0 68 45 103.5t115 35.5h188v-122z" />
    <glyph glyph-name="f70f_" unicode="&#xf70f;" horiz-adv-x="1319" 
d="M1257 238q0 -134 -108 -201q-88 -51 -219 -51t-219 51q-109 67 -109 201v309q0 143 -190 143q-140 0 -183 -74q62 -38 62 -73q0 -21 -26.5 -53.5t-26.5 -59.5v-289h106v-141h-283v430q0 25 32 53.5t32 44.5q0 19 -86 64q18 115 127 180q100 62 248 62q157 0 256 -66
q108 -72 108 -209v-309q0 -123 152 -123q151 0 151 123v569h176v-581z" />
    <glyph glyph-name="f710_" unicode="&#xf710;" 
d="M18 922h-684v200h177v-90h507v-110z" />
    <glyph glyph-name="f711_" unicode="&#xf711;" 
d="M-272 1030q0 -51 -38 -84t-96 -33q-57 0 -95 33t-38 84t38 84t95 33q58 0 96 -33t38 -84zM-354 1030q0 45 -52 45q-51 0 -51 -45t51 -45q52 0 52 45z" />
    <glyph glyph-name="f712_" unicode="&#xf712;" 
d="M-264 1120h-406q-98 0 -98 -61q0 -25 18 -39h68l176 76l209 -84v-119l-205 86l-160 -68l-167 2q-76 45 -76 140q0 69 57 118.5t158 49.5h426v-101z" />
    <glyph glyph-name="f713_" unicode="&#xf713;" 
d="M-317 1198h-177v174h177v-174z" />
    <glyph glyph-name="f714_" unicode="&#xf714;" 
d="M-197 1198h-376v35q0 55 -56 55h-28v101h133q108 0 108 -93h219v-98z" />
    <glyph glyph-name="f715_" unicode="&#xf715;" 
d="M-111 1198h-190v86q0 41 -37 41h-10l-80 -55l-84 55h-2q-41 0 -37 -41v-4h55v-82h-161v94q0 62 42 96.5t105 34.5h14l70 -49l66 49h16q141 0 145 -125h88v-100z" />
    <glyph glyph-name="f716_" unicode="&#xf716;" 
d="M-246 1270h-78v-72h-159v72h-78v78h78v71h159v-71h78v-78z" />
    <glyph glyph-name="f717_" unicode="&#xf717;" 
d="M-256 1169h-90q-66 0 -66 -57v-18h-157v61q0 125 143 125h170v-111z" />
    <glyph glyph-name="_e00_" unicode="&#xe00;" horiz-adv-x="205" 
 />
    <glyph glyph-name="afii59681" unicode="&#xe01;" horiz-adv-x="840" 
d="M778 0h-176v547q0 143 -190 143q-140 0 -183 -74q62 -38 62 -73q0 -21 -26.5 -53.5t-26.5 -59.5v-430h-177v430q0 25 32 53.5t32 44.5q0 19 -86 64q18 115 127 180q100 62 248 62q157 0 256 -66q108 -72 108 -209v-559z" />
    <glyph glyph-name="afii59682_" unicode="&#xe02;" horiz-adv-x="758" 
d="M696 242q0 -136 -102 -201q-84 -53 -215 -53q-129 0 -213 53q-105 65 -105 201v268q0 57 76 97t76 59q0 24 -45 24h-119v129h135q205 0 205 -145q0 -62 -75.5 -104t-75.5 -74v-252q0 -115 141 -115t141 115v575h176v-577z" />
    <glyph glyph-name="afii59683_" unicode="&#xe03;" horiz-adv-x="768" 
d="M707 238q0 -132 -103 -199q-86 -51 -215 -51t-213 51q-104 67 -104 199v245q0 60 80.5 106t80.5 77q0 28 -14 43l-92 -78l-127 110l102 88l64 -55l63 51q166 13 166 -143q0 -76 -73.5 -131t-73.5 -86v-223q0 -115 141 -115t141 115v577h177v-581z" />
    <glyph glyph-name="afii59684_" unicode="&#xe04;" horiz-adv-x="860" 
d="M799 0h-176v557q0 133 -193 133q-192 0 -192 -133v-72h249v-151h-249v-334h-177v559q0 133 119 209q103 66 250 66q150 0 252 -66q117 -74 117 -209v-559z" />
    <glyph glyph-name="afii59685_" unicode="&#xe05;" horiz-adv-x="860" 
d="M799 0h-176v594q0 70 -64 86l-125 -86l-131 86q-65 -18 -65 -86v-109h249v-151h-249v-334h-177v582q0 102 68 170.5t193 81.5l108 -76l109 76q125 -13 192.5 -81.5t67.5 -170.5v-582z" />
    <glyph glyph-name="afii59686_" unicode="&#xe06;" horiz-adv-x="870" 
d="M809 252q0 -262 -291 -262q-162 0 -270 123v-113h-176v483q0 60 80.5 106t80.5 77q0 28 -14 43l-92 -78l-127 110l102 88l64 -55l63 51q166 13 166 -143q0 -76 -73.5 -131t-73.5 -86v-141q0 -64 69 -125q78 -70 177 -70q139 0 139 121v569h176v-567z" />
    <glyph glyph-name="afii59687_" unicode="&#xe07;" horiz-adv-x="774" 
d="M735 446q0 -184 -84 -301q-104 -145 -317 -145h-117l-219 662l145 110l207 -618h2q111 0 166 106q49 94 37 229q-16 189 -221 189q-41 0 -88 -6v153q55 9 104 9q385 0 385 -388z" />
    <glyph glyph-name="afii59688_" unicode="&#xe08;" horiz-adv-x="797" 
d="M752 459q0 -221 -126 -342t-335 -121q-29 0 -60 2l-114 448l-37 66h201l88 -354q86 12 146 96t60 205q0 104 -59 168.5t-156 64.5q-159 0 -206 -119h-168q14 117 115.5 189t258.5 72q179 0 283 -95q109 -100 109 -280z" />
    <glyph glyph-name="afii59689_" unicode="&#xe09;" horiz-adv-x="850" 
d="M788 0h-176v113q-108 -123 -270 -123q-270 0 -270 262v203l-21 63h197v-262q0 -127 129 -127q100 0 172 70q63 61 63 125v223q0 143 -202 143q-164 0 -199 -98h-184q28 125 147 188q98 54 236 54q161 0 264 -66q114 -74 114 -209v-559z" />
    <glyph glyph-name="afii59690_" unicode="&#xe0a;" horiz-adv-x="823" 
d="M780 328q0 -166 -116 -254q-109 -78 -289 -76l-314 2v819h177v-678l131 -4q96 -2 161 45q74 51 74 144q0 75 -50 124.5t-128 49.5h-119v141h119q166 0 149 178h173q4 -18 4 -39q0 -145 -140 -213q70 -26 117 -88q51 -69 51 -151z" />
    <glyph glyph-name="afii59691_" unicode="&#xe0b;" horiz-adv-x="856" 
d="M813 328q0 -166 -117 -254q-108 -78 -288 -76l-314 2v483q0 60 60.5 106t60.5 77q0 28 -14 43l-92 -78l-127 110l102 88l63 -55l64 51q166 13 166 -143q0 -76 -53.5 -131t-53.5 -86v-324l131 -4q97 -2 162 45q74 51 74 144q0 75 -50 124.5t-128 49.5h-62v141h62
q166 0 149 178h172q4 -18 4 -39q0 -145 -139 -213q70 -26 117 -88q51 -69 51 -151z" />
    <glyph glyph-name="afii59692_" unicode="&#xe0c;" horiz-adv-x="1319" 
d="M1257 254q0 -264 -256 -264q-137 0 -223 96v-86h-176v547q0 143 -190 143q-140 0 -183 -74q62 -38 62 -73q0 -21 -26.5 -53.5t-26.5 -59.5v-289h106v-141h-283v430q0 25 32 53.5t32 44.5q0 19 -86 64q18 115 127 180q100 62 248 62q157 0 256 -66q108 -72 108 -209v-268
q0 -58 52.5 -105t132.5 -47q118 0 118 123v557h176v-565z" />
    <glyph glyph-name="afii59693_" unicode="&#xe0d;" horiz-adv-x="1319" 
d="M1257 57q0 -135 -88 -208.5t-239 -73.5h-328v135h316q81 0 124 37t39 90q-77 -55 -194 -55q-285 0 -285 247v318q0 143 -190 143q-140 0 -183 -74q62 -38 62 -73q0 -21 -26.5 -53.5t-26.5 -59.5v-289h106v-141h-283v430q0 25 32 53.5t32 44.5q0 19 -86 64q18 115 127 180
q100 62 248 62q157 0 256 -66q108 -72 108 -209v-321q0 -115 131 -115q70 0 117 37q55 39 55 108v551h176v-762z" />
    <glyph glyph-name="afii59694_" unicode="&#xe0e;" horiz-adv-x="860" 
d="M799 -305h-160l-129 100l-125 -100h-268v137h219l176 131l111 -86v670q0 143 -191 143q-139 0 -182 -74q61 -38 61 -73q0 -21 -26.5 -53.5t-26.5 -59.5v-430h-248v143h72v287q0 25 31.5 53.5t31.5 44.5q0 19 -86 64q19 115 127 180q101 62 248 62q158 0 256 -66
q109 -72 109 -209v-864z" />
    <glyph glyph-name="afii59695_" unicode="&#xe0f;" horiz-adv-x="860" 
d="M799 -305h-160l-92 78l-103 -101l-110 103l-80 -80h-209v135h152l139 115l104 -92l109 92l74 -56v658q0 143 -191 143q-139 0 -182 -74q61 -38 61 -73q0 -21 -26.5 -53.5t-26.5 -59.5v-430h-248v143h72v287q0 25 31.5 53.5t31.5 44.5q0 19 -86 64q19 115 127 180
q101 62 248 62q158 0 256 -66q109 -72 109 -209v-864z" />
    <glyph glyph-name="afii59696_" unicode="&#xe10;" horiz-adv-x="797" 
d="M752 459q0 -221 -126 -342t-335 -121q-29 0 -60 2l-114 448l-37 66h201l88 -354q86 12 146 96t60 205q0 104 -59 168.5t-156 64.5q-159 0 -206 -119h-168q14 117 115.5 189t258.5 72q76 0 140 -19q39 27 39 66h186q0 -84 -92 -133q119 -103 119 -289zM676 -301h-144
l-81 68l-95 -89l-96 91l-86 -66h-188v135h143l133 99l94 -87l86 87l78 -72v104h156v-270z" />
    <glyph glyph-name="afii59697_" unicode="&#xe11;" horiz-adv-x="903" 
d="M842 0h-176v584q0 92 -43 92q-35 0 -117 -144q-74 -129 -149.5 -303t-75.5 -215v-14h-177v483q0 60 55.5 106t55.5 77q0 28 -14 43l-92 -78l-127 110l102 88l63 -55l64 51q166 13 166 -143q0 -76 -48 -131t-48 -86v-19q0 -34 -19 -170h6q17 76 60 207l63 117
q135 227 254 227q197 0 197 -225v-602z" />
    <glyph glyph-name="afii59698_" unicode="&#xe12;" horiz-adv-x="1350" 
d="M1288 254q0 -264 -256 -264q-137 0 -223 96v-86h-176v639l-101 -100l-153 129q-74 -23 -123 -93.5t-49 -162.5q0 -117 57 -189q64 -78 174 -78q54 0 113 19v-158q-68 -10 -127 -10q-191 0 -295 119q-98 114 -98 297q0 168 102.5 279.5t282.5 139.5l114 -106l113 94h166
v-528q0 -58 52 -105t132 -47q119 0 119 123v557h176v-565z" />
    <glyph glyph-name="afii59699_" unicode="&#xe13;" horiz-adv-x="1319" 
d="M1257 0h-176v86q-86 -96 -223 -96q-256 0 -256 264v293q0 143 -190 143q-140 0 -183 -74q62 -38 62 -73q0 -21 -26.5 -53.5t-26.5 -59.5v-289h106v-141h-283v430q0 25 32 53.5t32 44.5q0 19 -86 64q18 115 127 180q100 62 248 62q157 0 256 -66q108 -72 108 -209v-297
q0 -123 119 -123q80 0 135 49q49 45 49 103v528h176v-819z" />
    <glyph glyph-name="afii59700_" unicode="&#xe14;" horiz-adv-x="866" 
d="M805 -2h-176v678h-187q-102 0 -168.5 -81t-66.5 -189q0 -117 55 -187q60 -76 166 -76q55 0 119 21v-158q-72 -12 -135 -12q-185 0 -287 119q-94 110 -94 293q0 176 119.5 294.5t300.5 118.5h354v-821z" />
    <glyph glyph-name="afii59701_" unicode="&#xe15;" horiz-adv-x="870" 
d="M809 0h-176v639l-101 -100l-153 129q-74 -23 -123 -93.5t-49 -162.5q0 -117 57 -189q64 -78 174 -78q54 0 113 19v-158q-68 -10 -127 -10q-191 0 -295 119q-98 114 -98 297q0 168 102.5 279.5t282.5 139.5l114 -106l113 94h166v-819z" />
    <glyph glyph-name="afii59702_" unicode="&#xe16;" horiz-adv-x="840" 
d="M778 0h-176v547q0 143 -190 143q-140 0 -183 -74q62 -38 62 -73q0 -21 -26.5 -53.5t-26.5 -59.5v-289h106v-141h-283v430q0 25 32 53.5t32 44.5q0 19 -86 64q18 115 127 180q100 62 248 62q157 0 256 -66q108 -72 108 -209v-559z" />
    <glyph glyph-name="afii59703_" unicode="&#xe17;" horiz-adv-x="860" 
d="M799 0h-176v565q0 125 -140 125q-98 0 -176 -69q-69 -62 -69 -125v-496h-177v819h177v-112q108 124 270 124q291 0 291 -268v-563z" />
    <glyph glyph-name="afii59704_" unicode="&#xe18;" horiz-adv-x="823" 
d="M782 287q0 -287 -325 -287h-396v401h177v-258h180q194 0 188 138q-4 116 -184 133q-207 20 -266 43q-117 43 -111 164q4 96 101.5 154.5t252.5 58.5q346 0 377 -242h-176q-25 98 -211 98q-70 0 -119 -19.5t-49 -49.5q0 -29 72 -41q12 -2 162 -17q327 -33 327 -276z" />
    <glyph glyph-name="afii59705_" unicode="&#xe19;" horiz-adv-x="860" 
d="M799 0h-176v113q-109 -123 -271 -123q-291 0 -291 266v563h177v-565q0 -125 139 -125q98 0 176 70q70 61 70 125v495h176v-819z" />
    <glyph glyph-name="afii59706_" unicode="&#xe1a;" horiz-adv-x="860" 
d="M799 264q0 -135 -113 -211q-100 -65 -256 -65q-158 0 -258 65q-111 74 -111 211v555h177v-545q0 -71 55 -108t137 -37t137.5 37t55.5 108v545h176v-555z" />
    <glyph glyph-name="afii59707_" unicode="&#xe1b;" horiz-adv-x="860" 
d="M799 264q0 -135 -113 -211q-100 -65 -256 -65q-158 0 -258 65q-111 74 -111 211v555h177v-545q0 -71 55 -108t137 -37t137.5 37t55.5 108v811h176v-821z" />
    <glyph glyph-name="afii59708_" unicode="&#xe1c;" horiz-adv-x="1135" 
d="M1135 819l-236 -819h-143l-189 565l-188 -565h-143l-236 819h332v-131h-121l106 -412l179 543h143l178 -543l141 543h177z" />
    <glyph glyph-name="afii59709_" unicode="&#xe1d;" horiz-adv-x="1135" 
d="M1210 1085l-311 -1085h-143l-189 565l-188 -565h-143l-236 819h332v-131h-121l106 -412l179 543h143l178 -543l217 809h176z" />
    <glyph glyph-name="afii59710_" unicode="&#xe1e;" horiz-adv-x="1135" 
d="M1135 819l-236 -819h-143l-189 565l-188 -565h-143l-236 819h176l141 -543l179 543h143l178 -543l141 543h177z" />
    <glyph glyph-name="afii59711_" unicode="&#xe1f;" horiz-adv-x="1135" 
d="M1210 1085l-311 -1085h-143l-189 565l-188 -565h-143l-236 819h176l141 -543l179 543h143l178 -543l217 809h176z" />
    <glyph glyph-name="afii59712_" unicode="&#xe20;" horiz-adv-x="860" 
d="M799 0h-176v547q0 143 -191 143q-139 0 -182 -74q61 -38 61 -73q0 -21 -26.5 -53.5t-26.5 -59.5v-430h-248v143h72v287q0 25 31.5 53.5t31.5 44.5q0 19 -86 64q19 115 127 180q101 62 248 62q158 0 256 -66q109 -72 109 -209v-559z" />
    <glyph glyph-name="afii59713_" unicode="&#xe21;" horiz-adv-x="860" 
d="M799 256q0 -266 -291 -266q-162 0 -270 123v-113h-177v819h177v-495q0 -64 69 -125q78 -70 176 -70q140 0 140 125v565h176v-563z" />
    <glyph glyph-name="afii59714_" unicode="&#xe22;" horiz-adv-x="870" 
d="M809 0l-395 -6q-189 -4 -286 62.5t-93 205.5q2 66 46 119t103 72q-129 30 -129 157q0 152 164 201q82 25 211 6v-143q-43 8 -80 8q-119 0 -119 -72q0 -73 150 -73h252v282h176v-819zM633 141v252h-230q-190 0 -190 -131q0 -129 223 -125z" />
    <glyph glyph-name="afii59715_" unicode="&#xe23;" horiz-adv-x="793" 
d="M762 268q0 -280 -373 -280q-364 0 -369 319h179q0 -178 190 -178q197 0 197 133q0 98 -174 115q-193 18 -258 47q-113 47 -113 172q0 102 100.5 170t243.5 68q150 0 246 -58q114 -69 121 -205h-177q-6 62 -69 93q-51 26 -125 26q-66 0 -115 -22.5t-49 -61.5q0 -37 70 -55
q32 -6 149 -19q152 -14 226 -61q100 -65 100 -203z" />
    <glyph glyph-name="afii59716_" unicode="&#xe24;" horiz-adv-x="840" 
d="M778 -244h-176v791q0 143 -190 143q-140 0 -183 -74q62 -38 62 -73q0 -21 -26.5 -53.5t-26.5 -59.5v-289h106v-141h-283v430q0 25 32 53.5t32 44.5q0 19 -86 64q18 115 127 180q100 62 248 62q157 0 256 -66q108 -72 108 -209v-803z" />
    <glyph glyph-name="afii59717_" unicode="&#xe25;" horiz-adv-x="856" 
d="M795 0h-177v397q-49 -28 -253 -39q-158 -8 -158 -114q0 -105 141 -105q60 0 133 19v-154q-86 -10 -151 -10q-299 0 -299 250q0 235 280 262q97 6 193 10q108 16 108 78q0 45 -52 70.5t-128 25.5t-131 -28q-61 -33 -72 -91h-180q21 136 139 205q101 58 246 58
q150 0 246 -56q115 -67 115 -200v-578z" />
    <glyph glyph-name="afii59718_" unicode="&#xe26;" horiz-adv-x="860" 
d="M799 -244h-176v791q0 143 -191 143q-139 0 -182 -74q61 -38 61 -73q0 -21 -26.5 -53.5t-26.5 -59.5v-430h-248v143h72v287q0 25 31.5 53.5t31.5 44.5q0 19 -86 64q19 115 127 180q101 62 248 62q158 0 256 -66q109 -72 109 -209v-803z" />
    <glyph glyph-name="afii59719_" unicode="&#xe27;" horiz-adv-x="821" 
d="M791 410q0 -222 -115 -330q-101 -92 -273 -92q-307 0 -372 278h188q51 -137 184 -137q211 0 211 281q0 280 -211 280q-133 0 -184 -137h-188q65 281 372 281q172 0 273 -95q115 -108 115 -329z" />
    <glyph glyph-name="afii59720_" unicode="&#xe28;" horiz-adv-x="860" 
d="M801 881q0 -41 -32 -75t-73 -48q103 -76 103 -199v-559h-176v557q0 133 -193 133q-192 0 -192 -133v-72h249v-151h-249v-334h-177v559q0 133 119 209q103 66 250 66q66 0 135 -17q49 19 49 64h187z" />
    <glyph glyph-name="afii59721_" unicode="&#xe29;" horiz-adv-x="870" 
d="M860 401h-61v-137q0 -135 -113 -211q-100 -65 -256 -65q-158 0 -258 65q-111 74 -111 211v555h177v-545q0 -71 55 -108t137 -37t137.5 37t55.5 108v127h-254v179h176v-56h78v295h176v-295h61v-123z" />
    <glyph glyph-name="afii59722_" unicode="&#xe2a;" horiz-adv-x="856" 
d="M795 0h-177v397q-49 -28 -253 -39q-158 -8 -158 -114q0 -105 141 -105q60 0 133 19v-154q-86 -10 -151 -10q-299 0 -299 250q0 235 280 262q97 6 193 10q108 16 108 78q0 45 -52 70.5t-128 25.5t-131 -28q-61 -33 -72 -91h-180q21 136 139 205q101 58 246 58
q66 0 127 -13q41 17 41 60h186q0 -72 -88 -117q95 -68 95 -186v-578z" />
    <glyph glyph-name="afii59723_" unicode="&#xe2b;" horiz-adv-x="860" 
d="M758 678h-451v141h451v-141zM799 0h-176v367q0 127 -140 127q-92 0 -168.5 -64.5t-76.5 -130.5v-299h-177v819h177v-276q96 104 256 104q137 0 217 -63q88 -70 88 -203v-381z" />
    <glyph glyph-name="afii59724_" unicode="&#xe2c;" horiz-adv-x="1135" 
d="M1206 1065q-24 -182 -223 -199q115 -41 115 -147q0 -31 -11 -64l-188 -655h-143l-189 563l-188 -563h-143l-236 819h178l139 -543l179 543h143l178 -543l105 400q4 16 4 31q0 47 -38 79.5t-100 32.5h-65v123h100q183 0 205 123h178z" />
    <glyph glyph-name="afii59725_" unicode="&#xe2d;" horiz-adv-x="905" 
d="M874 410q0 -211 -122 -324q-113 -98 -299 -98q-187 0 -297 98q-125 113 -125 324q0 73 14 125h328v-136h-166q2 -131 72 -202q63 -68 174 -68q112 0 178.5 72.5t66.5 208.5q0 135 -66.5 207.5t-178.5 72.5q-136 0 -199 -104h-195q84 248 394 248q186 0 299 -101
q122 -112 122 -323z" />
    <glyph glyph-name="afii59726_" unicode="&#xe2e;" horiz-adv-x="905" 
d="M874 410q0 -211 -122 -324q-113 -98 -299 -98q-187 0 -297 98q-125 113 -125 324q0 73 14 125h328v-136h-166q2 -131 72 -202q63 -68 174 -68q112 0 178.5 72.5t66.5 208.5q0 135 -66.5 207.5t-178.5 72.5q-136 0 -199 -104h-195q84 248 394 248q73 0 129 -15
q41 23 41 62h186q0 -80 -92 -121q157 -107 157 -350z" />
    <glyph glyph-name="afii59727_" unicode="&#xe2f;" horiz-adv-x="784" 
d="M723 0h-174v530q-107 -98 -256 -98q-105 0 -178 53q-84 58 -84 156q0 88 71 139q66 45 166 45q64 0 123 -20v-131q-43 24 -92 24q-94 0 -94 -59q0 -64 90 -64q106 0 173 67t83 177h172v-819z" />
    <glyph glyph-name="afii59729_" unicode="&#xe30;" horiz-adv-x="397" 
d="M367 645q0 -63 -47.5 -108t-120.5 -45q-74 0 -121 45t-47 108q0 64 47 109t121 45q73 0 120.5 -45t47.5 -109zM367 174q0 -63 -47.5 -108.5t-120.5 -45.5q-74 0 -121 45.5t-47 108.5q0 64 47 109t121 45q73 0 120.5 -45t47.5 -109zM262 645q0 57 -63 57q-64 0 -64 -57
t64 -57q63 0 63 57zM262 174q0 57 -63 57q-64 0 -64 -57t64 -57q63 0 63 57z" />
    <glyph glyph-name="afii59728_" unicode="&#xe31;" 
d="M170 922h-623v200h177v-90h446v-110z" />
    <glyph glyph-name="afii59730_" unicode="&#xe32;" horiz-adv-x="481" 
d="M420 0h-176v578q0 45 -43 73.5t-119 28.5q-33 0 -72 -6v143q58 10 111 10q133 0 216 -57t83 -162v-608z" />
    <glyph glyph-name="afii59731_" unicode="&#xe33;" horiz-adv-x="481" 
d="M-14 1030q0 -51 -38 -84t-95 -33q-58 0 -96 33t-38 84t38 84t96 33q57 0 95 -33t38 -84zM420 0h-176v578q0 45 -43 73.5t-119 28.5q-33 0 -72 -6v143q58 10 111 10q133 0 216 -57t83 -162v-608zM-96 1030q0 45 -51 45q-52 0 -52 -45t52 -45q51 0 51 45z" />
    <glyph glyph-name="afii59732_" unicode="&#xe34;" 
d="M-59 922h-666v110h666v-110z" />
    <glyph glyph-name="afii59733_" unicode="&#xe35;" 
d="M-59 922h-666v110h489v105h177v-215z" />
    <glyph glyph-name="afii59734_" unicode="&#xe36;" 
d="M-18 1034q0 -49 -36 -80.5t-93 -31.5h-578v110h449q0 51 35.5 83t93.5 32q57 0 93 -32t36 -81zM-100 1034q0 43 -47 43q-48 0 -48 -43t48 -43q47 0 47 43z" />
    <glyph glyph-name="afii59735_" unicode="&#xe37;" 
d="M-59 922h-666v110h313v105h115v-105h61v105h177v-215z" />
    <glyph glyph-name="afii59736_" unicode="&#xe38;" 
d="M-59 -326h-177v156h-81v111h258v-267z" />
    <glyph glyph-name="afii59737_" unicode="&#xe39;" 
d="M-59 -190q0 -136 -217 -136q-209 0 -209 136v20h-62v111h217v-131q0 -48 47 -48t47 48v131h177v-131z" />
    <glyph glyph-name="afii59738_" unicode="&#xe3a;" 
d="M-33 -174q0 -47 -33.5 -81t-80.5 -34q-48 0 -81.5 34t-33.5 81t33.5 81t81.5 34q47 0 80.5 -34t33.5 -81z" />
    <glyph glyph-name="f71c_" unicode="&#xf71c;" horiz-adv-x="512" 
 />
    <glyph glyph-name="f71d_" unicode="&#xf71d;" horiz-adv-x="512" 
d="M464 -191v191h-416v-191h34v72q17 11 36 17t40 6h187q53 0 86 -27v-68h33z" />
    <glyph glyph-name="afii59743_" unicode="&#xe3f;" horiz-adv-x="969" 
d="M918 272q0 -122 -87 -194q-94 -78 -276 -78h-37v-127h-74v127h-342v965h342v129h74v-129h62q294 0 294 -244q0 -139 -122 -201q166 -47 166 -248zM690 690q0 123 -135 123h-37v-246h37q135 0 135 123zM444 567v246h-155v-246h155zM733 295q0 135 -153 135h-62v-278h62
q153 0 153 143zM444 152v278h-155v-278h155z" />
    <glyph glyph-name="afii59744_" unicode="&#xe40;" horiz-adv-x="381" 
d="M279 0h-177v819h177v-819z" />
    <glyph glyph-name="afii59745_" unicode="&#xe41;" horiz-adv-x="680" 
d="M578 0h-177v819h177v-819zM279 0h-177v819h177v-819z" />
    <glyph glyph-name="afii59746_" unicode="&#xe42;" horiz-adv-x="422" 
d="M473 1133l-190 4q-78 2 -78 -27q0 -10 47 -49t47 -100v-961h-176v930q0 51 -47 98t-47 92q0 56 48 93.5t140 35.5l256 -4v-112z" />
    <glyph glyph-name="afii59747_" unicode="&#xe43;" horiz-adv-x="422" 
d="M395 1110q0 -51 -48 -99t-48 -93v-918h-176v934q0 57 47 96t47 70q0 59 -74 59q-45 0 -67.5 -26.5t-18.5 -61.5h-139q-2 12 -2 27q0 76 67.5 124t174.5 48q110 0 173.5 -44t63.5 -116z" />
    <glyph glyph-name="afii59748_" unicode="&#xe44;" horiz-adv-x="422" 
d="M356 1135q0 -29 -28.5 -67t-28.5 -67v-1001h-176v999q0 35 29.5 65t29.5 42q0 16 -35 16h-14l-88 -57l-199 111l107 71l90 -57l74 43h90q147 0 149 -98z" />
    <glyph glyph-name="afii59749_" unicode="&#xe45;" horiz-adv-x="481" 
d="M420 -244h-176v822q0 45 -43 73.5t-119 28.5q-33 0 -72 -6v143q58 10 111 10q133 0 216 -57t83 -162v-852z" />
    <glyph glyph-name="afii59750_" unicode="&#xe46;" horiz-adv-x="788" 
d="M727 -244h-176v854l-86 -78l-180 148q-31 -4 -53.5 -26.5t-22.5 -51.5q0 -84 115 -84q18 0 38 4v-145q-32 -4 -63 -4q-123 0 -195.5 60.5t-72.5 158.5t83 167.5t224 69.5l125 -102l106 92h158v-1063z" />
    <glyph glyph-name="afii59751_" unicode="&#xe47;" 
d="M-78 1120h-405q-99 0 -99 -61q0 -25 19 -39h67l177 76l208 -84v-119l-204 86l-160 -68l-168 2q-76 45 -76 140q0 69 57.5 118.5t157.5 49.5h426v-101z" />
    <glyph glyph-name="afii59752_" unicode="&#xe48;" 
d="M-59 1198h-177v174h177v-174z" />
    <glyph glyph-name="afii59753_" unicode="&#xe49;" 
d="M39 1198h-375v35q0 55 -55 55h-29v101h133q109 0 109 -93h217v-98z" />
    <glyph glyph-name="afii59754_" unicode="&#xe4a;" 
d="M125 1198h-188v86q0 41 -37 41h-11l-79 -55l-84 55h-2q-41 0 -37 -41v-4h55v-82h-162v94q0 62 42 96.5t106 34.5h14l70 -49l65 49h17q139 0 143 -125h88v-100z" />
    <glyph glyph-name="afii59755_" unicode="&#xe4b;" 
d="M10 1270h-76v-72h-159v72h-78v78h78v71h159v-71h76v-78z" />
    <glyph glyph-name="afii59756_" unicode="&#xe4c;" 
d="M0 1169h-88q-66 0 -66 -57v-18h-157v61q0 125 143 125h168v-111z" />
    <glyph glyph-name="afii59757_" unicode="&#xe4d;" 
d="M-14 1030q0 -51 -38 -84t-95 -33q-58 0 -96 33t-38 84t38 84t96 33q57 0 95 -33t38 -84zM-96 1030q0 45 -51 45q-52 0 -52 -45t52 -45q51 0 51 45z" />
    <glyph glyph-name="afii59758_" unicode="&#xe4e;" 
d="M2 1430q-119 2 -208 -19.5t-89 -54.5q0 -31 59 -39q27 -2 62 0v-94q-111 6 -176 -15q-88 -28 -76 -69q4 -17 41 -17q66 0 123 39l53 -90q-115 -59 -207 -49q-131 14 -135 113q-2 57 49 102q45 39 109 51q-29 25 -29 68q0 39 38 81t95 64q94 37 291 35v-106z" />
    <glyph glyph-name="afii59759_" unicode="&#xe4f;" horiz-adv-x="963" 
d="M901 410q0 -174 -123 -296t-297 -122t-297 122t-123 296t123 296.5t297 122.5t297 -122.5t123 -296.5zM840 410q0 147 -105.5 252.5t-253.5 105.5q-147 0 -252.5 -105.5t-105.5 -252.5q0 -148 105.5 -253.5t252.5 -105.5q148 0 253.5 105.5t105.5 253.5zM737 410
q0 -107 -74.5 -181.5t-181.5 -74.5q-106 0 -181 74.5t-75 181.5q0 106 75 181t181 75q107 0 181.5 -75t74.5 -181z" />
    <glyph glyph-name="afii59760_" unicode="&#xe50;" horiz-adv-x="815" 
d="M774 307q0 -135 -102.5 -226t-263.5 -91q-162 0 -264.5 91t-102.5 226t102.5 227.5t264.5 92.5q161 0 263.5 -92.5t102.5 -227.5zM621 307q0 80 -59.5 133.5t-155.5 53.5q-97 0 -156.5 -53.5t-59.5 -133.5t59.5 -133t156.5 -53q96 0 155.5 53t59.5 133z" />
    <glyph glyph-name="afii59761_" unicode="&#xe51;" horiz-adv-x="864" 
d="M823 311q0 -153 -141 -268q-129 -104 -320 -133l-65 102q160 21 265.5 102t105.5 187q0 84 -68 138.5t-174 54.5q-98 0 -163.5 -48.5t-65.5 -121.5q0 -78 63 -103q-6 19 -6 45q0 58 46 99t108 41q65 0 110 -41t45 -99q0 -82 -67.5 -136t-173.5 -54q-113 0 -197 68.5
t-84 181.5q0 135 109.5 218t273.5 83q182 0 290.5 -85t108.5 -231zM467 262q0 57 -57 57q-58 0 -58 -57t58 -57q57 0 57 57z" />
    <glyph glyph-name="afii59762_" unicode="&#xe52;" horiz-adv-x="1159" 
d="M1098 199q0 -93 -58.5 -146t-154.5 -53h-611q-98 0 -155.5 53t-57.5 146v432q0 90 -124 90l67 117q213 0 213 -166v-457q0 -78 86 -78h553q86 0 86 78v223q0 74 -84 74q-29 0 -53.5 -18.5t-24.5 -42.5v-252h-155v243q0 70 -101 70q-78 0 -100 -57q-2 -4 0 -4
q61 0 104 -38t43 -94q0 -55 -43 -93t-104 -38q-62 0 -103.5 38t-41.5 93v111q0 92 70.5 149.5t178.5 57.5q117 0 174 -72q60 72 162 72q107 0 170.5 -54.5t63.5 -148.5v-235zM479 322q0 51 -51 51t-51 -51q0 -52 51 -52t51 52z" />
    <glyph glyph-name="afii59763_" unicode="&#xe53;" horiz-adv-x="997" 
d="M936 0h-156v416q0 84 -92 84q-39 0 -64.5 -21.5t-25.5 -54.5v-424h-156v418q0 82 -106 82q-51 0 -85 -24.5t-34 -63.5v-113h14q70 0 120 -45t50 -109q0 -65 -49 -109t-121 -44q-71 0 -120.5 44t-49.5 109v263q0 104 84 165q76 56 189 56q131 0 188 -80q58 80 172 80
q109 0 175.5 -54.5t66.5 -152.5v-422zM293 143q0 60 -60 60q-59 0 -59 -60q0 -59 59 -59q60 0 60 59z" />
    <glyph glyph-name="afii59764_" unicode="&#xe54;" horiz-adv-x="926" 
d="M926 844q2 -146 -70 -242t-194 -100q-48 -2 -117 2q-92 4 -135 4q-93 0 -153 -53.5t-60 -145.5q0 -86 55 -136t135 -50q86 0 127 16q-102 56 -102 150q0 65 49 109t114 44q70 0 116 -42t46 -105q0 -62 -55 -111q20 -12 113 -28q79 -13 127 -60l-88 -104q-101 47 -168 47
q-35 0 -125 -25.5t-162 -25.5q-143 0 -236 75q-102 89 -102 246q0 150 109 242q102 88 260 86q45 0 122 -6q56 -2 111 0t92 67q33 60 35 146h156zM635 295q0 59 -60 59q-59 0 -59 -59t59 -59q60 0 60 59z" />
    <glyph glyph-name="afii59765_" unicode="&#xe55;" horiz-adv-x="926" 
d="M926 844q2 -146 -70 -242t-194 -100q-48 -2 -117 2q-92 4 -135 4q-93 0 -153 -53.5t-60 -145.5q0 -86 55 -136t135 -50q86 0 127 16q-102 56 -102 150q0 65 49 109t114 44q70 0 116 -42t46 -105q0 -62 -55 -111q20 -12 113 -28q79 -13 127 -60l-88 -104q-101 47 -168 47
q-35 0 -125 -25.5t-162 -25.5q-143 0 -236 75q-102 89 -102 246q0 119 67.5 201t178.5 113q-21 28 -21 69q0 70 53.5 113t137.5 43t137 -43t53 -113q0 -30 -22 -61q18 0 45.5 1t64.5 66q33 60 35 146h156zM526 696q0 25 -20.5 43.5t-48.5 18.5q-29 0 -49.5 -18.5
t-20.5 -43.5q0 -24 20.5 -42.5t49.5 -18.5q28 0 48.5 18.5t20.5 42.5zM635 295q0 59 -60 59q-59 0 -59 -59t59 -59q60 0 60 59z" />
    <glyph glyph-name="afii59766_" unicode="&#xe56;" horiz-adv-x="872" 
d="M831 317q0 -143 -114.5 -236t-286.5 -93q-156 0 -254 75q-88 70 -88 164q0 66 48 108t118 42q68 0 115 -42t47 -106q0 -65 -49 -102q49 -6 59 -6q104 0 177 56t73 145q0 79 -65.5 132.5t-159.5 53.5q-142 0 -220 -82h-122q-39 225 -183 338l125 80q144 -90 174 -275
q92 70 232 70q164 0 269 -89t105 -233zM311 225q0 60 -59 60t-59 -60q0 -59 59 -59t59 59z" />
    <glyph glyph-name="afii59767_" unicode="&#xe57;" horiz-adv-x="1233" 
d="M1313 752q-111 -54 -129 -140q-6 -26 -6 -59q0 -25 8 -102q8 -66 4 -109q-12 -143 -103 -236q-81 -83 -200 -106h-107v416q0 84 -92 84q-39 0 -64.5 -21.5t-25.5 -54.5v-424h-156v418q0 82 -106 82q-51 0 -85 -24.5t-34 -63.5v-113h14q70 0 120 -45t50 -109
q0 -65 -49 -109t-121 -44q-71 0 -120.5 44t-49.5 109v263q0 104 84 165q76 56 189 56q131 0 188 -80q58 80 172 80q109 0 175.5 -54.5t66.5 -152.5v-252q92 45 98 176q2 49 -5 122t-7 101q0 37 6 70q25 129 152 205zM293 143q0 60 -60 60q-59 0 -59 -60q0 -59 59 -59
q60 0 60 59z" />
    <glyph glyph-name="afii59768_" unicode="&#xe58;" horiz-adv-x="934" 
d="M946 844q-33 -346 -244 -355q-51 -2 -143 10.5t-143 12.5q-97 0 -158 -47t-61 -127q0 -123 112 -184l125 151q133 -168 199 -168q8 0 16 10q-82 35 -82 127q0 58 46 100t112 42t114 -44t48 -110q0 -100 -80 -182t-184 -82q-78 0 -185 94l-76 -102q-145 16 -233 112.5
t-88 235.5q0 143 106 225q101 78 271 78q45 0 135 -10q80 -8 123 -6q94 4 115 219h155zM784 268q0 60 -59 60t-59 -60q0 -59 59 -59t59 59z" />
    <glyph glyph-name="afii59769_" unicode="&#xe59;" horiz-adv-x="1036" 
d="M1079 848q4 -35 4 -72q0 -188 -104 -346l-80 12q-18 68 -90 68q-53 0 -72 -49q111 -164 150 -453l-156 -18q-33 233 -94 356q-84 170 -240 170q-84 0 -142 -56.5t-58 -133.5q0 -86 51 -144q6 60 52 101t112 41q67 0 114 -45.5t47 -108.5q0 -80 -60 -130t-148 -50
q-148 0 -238 102q-86 96 -86 234q0 141 100.5 233t249.5 92q160 0 252 -82q37 74 129 86q94 13 146 -39q28 89 10 232h151zM467 164q0 59 -59 59q-60 0 -60 -59q0 -60 60 -60q59 0 59 60z" />
    <glyph glyph-name="afii59770_" unicode="&#xe5a;" horiz-adv-x="999" 
d="M938 0h-133v819h133v-819zM723 0h-174v530q-107 -98 -256 -98q-105 0 -178 53q-84 58 -84 156q0 88 71 139q66 45 166 45q64 0 123 -20v-131q-43 24 -92 24q-94 0 -94 -59q0 -64 90 -64q106 0 173 67t83 177h172v-819z" />
    <glyph glyph-name="afii59771_" unicode="&#xe5b;" horiz-adv-x="1516" 
d="M1473 434q0 -35 -64 -43l-147 -18q-21 -56 -56 -56q-20 0 -55 60q-18 -84 -66 -84q-18 0 -34.5 26.5l-32.5 53.5q-19 -103 -74 -103q-22 0 -39 33l-28 80q-37 -137 -101 -137q-43 0 -55 61q-4 27 -19 74q-34 -129 -106 -209q-111 -123 -246 -123q-127 0 -208 101.5
t-81 265.5q0 155 77 260.5t190 105.5q98 0 163.5 -76.5t65.5 -193.5q0 -92 -43 -151.5t-108 -59.5q-58 0 -96 44t-38 106q0 61 39 105t92 44q9 0 15 -2q-21 72 -88 72q-62 0 -104 -74t-42 -188q0 -115 49.5 -183.5t128.5 -68.5q93 0 163.5 101t92.5 265q13 94 68 94
q64 0 102 -135q5 27 5 54q2 61 51 61t96 -98q10 61 45 61q47 0 94 -88q19 57 51 57q31 0 70 -57q17 31 51 27l158 -19q64 -8 64 -45zM453 453q0 57 -50 57q-45 0 -45 -57q0 -58 45 -58q50 0 50 58z" />
    <glyph glyph-name="f718_" unicode="&#xf718;" 
d="M-59 -623h-177v156h-81v111h258v-267z" />
    <glyph glyph-name="f719_" unicode="&#xf719;" 
d="M-59 -487q0 -136 -217 -136q-209 0 -209 136v20h-62v111h217v-131q0 -48 47 -48t47 48v131h177v-131z" />
    <glyph glyph-name="f71a_" unicode="&#xf71a;" 
d="M-59 -471q0 -47 -34 -81t-81 -34t-81 34t-34 81t34 81t81 34t81 -34t34 -81z" />
    <glyph glyph-name="minus" unicode="&#xad;" horiz-adv-x="766" 
d="M725 274h-684v134h684v-134z" />
    <glyph glyph-name="multiply" unicode="&#xd7;" horiz-adv-x="766" 
d="M715 102l-94 -94l-240 240l-238 -238l-94 94l238 238l-238 238l94 94l238 -238l240 238l94 -94l-240 -238z" />
    <glyph glyph-name="glyph236" horiz-adv-x="1599" 
d="M100 0h1399v1599h-1399v-1599zM1401 100h-1200v1399h1200v-1399z" />
    <glyph glyph-name="glyph237" horiz-adv-x="512" 
 />
  </font>
</defs>
</svg>
